<?xml version="1.0" standalone="no"?>
<!DOCTYPE svg PUBLIC "-//W3C//DTD SVG 20010904//EN"
 "http://www.w3.org/TR/2001/REC-SVG-20010904/DTD/svg10.dtd">
<svg version="1.0" xmlns="http://www.w3.org/2000/svg"
 width="480.000000pt" height="480.000000pt" viewBox="0 0 480.000000 480.000000"
 preserveAspectRatio="xMidYMid meet">
<metadata>
Created by potrace 1.13, written by Peter Selinger 2001-2015
</metadata>
<g transform="translate(0.000000,480.000000) scale(0.100000,-0.100000)"
fill="#000000" stroke="none">
<path d="M3475 2604 c-101 -21 -238 -91 -304 -156 -124 -121 -176 -246 -176
-423 0 -190 51 -325 170 -446 94 -96 209 -165 430 -259 225 -95 312 -149 351
-216 23 -39 26 -53 22 -114 -3 -58 -8 -75 -34 -107 -48 -61 -130 -96 -234
-101 -150 -7 -254 27 -352 117 -31 28 -70 74 -88 101 -18 28 -33 50 -35 50 -1
0 -83 -47 -181 -104 -108 -64 -179 -110 -178 -119 1 -8 18 -39 38 -70 129
-195 310 -311 565 -362 113 -23 372 -16 477 13 198 54 345 166 419 317 82 167
83 399 2 568 -85 178 -218 279 -578 437 -250 111 -301 145 -334 223 -29 69
-15 155 34 211 55 63 202 82 293 38 44 -22 98 -73 144 -137 l20 -29 172 109
c94 61 172 115 172 121 0 7 -20 39 -45 73 -147 199 -323 282 -593 280 -59 0
-138 -7 -177 -15z"/>
<path d="M2158 1768 c-3 -928 1 -872 -72 -936 -45 -39 -104 -56 -181 -49 -103
8 -176 61 -241 173 -15 27 -29 51 -30 53 -2 2 -86 -47 -188 -109 l-185 -113
24 -41 c103 -174 225 -275 400 -333 74 -25 93 -27 250 -28 133 0 184 4 234 18
147 40 276 133 345 245 19 31 47 93 63 137 l28 80 3 868 3 867 -225 0 -225 0
-3 -832z"/>
</g>
</svg>
