<?xml version="1.0" encoding="utf-8"?>
<!-- Generated by IcoMoon.io -->
<!DOCTYPE svg PUBLIC "-//W3C//DTD SVG 1.1//EN" "http://www.w3.org/Graphics/SVG/1.1/DTD/svg11.dtd">
<svg version="1.1" xmlns="http://www.w3.org/2000/svg" xmlns:xlink="http://www.w3.org/1999/xlink" width="512" height="512" viewBox="0 0 512 512">
<g>
</g>
	<path d="M420.004 18.401h-328.048c-40.622 0-73.554 32.932-73.554 73.575v328.059c0 40.642 32.932 73.575 73.554 73.575h328.048c40.622 0 73.605-32.932 73.605-73.575v-328.069c-0.010-40.633-32.993-73.564-73.605-73.564zM349.584 94.669c3.697-27.669 27.423-48.988 56.115-48.988 31.303 0 56.699 25.374 56.699 56.688 0 27.146-19.139 49.808-44.636 55.327 4.055 10.803 6.195 22.088 6.144 33.372-0.103 22.088-8.397 42.455-23.419 57.314l-5.397 5.356-43.377-42.864c3.717-3.696 5.858-5.837 5.858-5.837 4.362-4.322 5.325-10.096 5.325-14.213 0.062-9.278-4.322-18.995-11.94-26.665-12.882-12.953-31.56-16.149-40.837-6.933 0 0-52.675 52.255-96.625 95.846l-43.407-42.885c44.032-43.704 97.095-96.287 97.095-96.287 21.494-21.35 52.9-27.495 82.401-19.23zM106.27 45.681c28.733 0 52.398 21.319 56.115 48.988 29.491-8.263 60.918-2.12 82.432 19.241 0 0 2.007 2.017 5.56 5.489l-43.571 42.732c-3.184-3.154-4.946-4.905-4.946-4.905-9.278-9.216-27.976-6.021-40.847 6.933-7.588 7.67-11.981 17.387-11.96 26.665 0.030 4.106 1.014 9.892 5.386 14.213 0 0 53.862 53.463 97.577 96.809l-43.55 42.731-96.993-96.205c-15.012-14.848-23.276-35.215-23.419-57.314-0.031-11.285 2.099-22.569 6.114-33.372-25.467-5.519-44.575-28.18-44.575-55.327 0.010-31.314 25.385-56.678 56.678-56.678zM187.904 425.144c-11.376-0.051-22.763-2.334-33.536-6.492-4.301 27.003-27.689 47.657-55.941 47.657-31.293 0-56.678-25.365-56.678-56.668 0-29.461 22.498-53.668 51.221-56.412-2.888-9.165-4.393-18.678-4.332-28.18 0.082-22.046 8.386-42.445 23.368-57.272 0 0 1.68-1.68 4.608-4.598l43.192 43.070c-3.082 3.103-4.854 4.823-4.854 4.823-4.362 4.362-5.315 10.137-5.315 14.224-0.020 9.318 4.301 19.005 11.94 26.675 7.608 7.7 17.296 12.124 26.553 12.165 4.126 0 9.964-0.88 14.295-5.233 0 0 52.736-52.316 96.707-95.918l43.202 43.070-96.983 96.164c-14.951 14.848-35.338 22.999-57.447 22.928zM413.563 466.309c-28.242 0-51.64-20.664-55.941-47.657-10.824 4.158-22.18 6.441-33.536 6.492-22.098 0.082-42.476-8.069-57.477-22.928l-6.247-6.164 43.766-42.506c4.342 4.291 5.458 5.356 5.458 5.356 4.362 4.352 10.096 5.233 14.244 5.233 9.236-0.041 18.964-4.464 26.563-12.165 7.659-7.67 12.002-17.357 11.94-26.675 0-4.075-0.962-9.861-5.356-14.224 0 0-50.381-51.835-94.556-95.611l42.69-42.731c44.002 43.643 94.863 95.048 94.863 95.048 14.981 14.827 23.296 35.216 23.378 57.272 0.082 9.502-1.464 19.015-4.342 28.18 28.764 2.745 51.262 26.952 51.262 56.412-0.010 31.314-25.436 56.668-56.709 56.668z" fill="#000000" />
</svg>
