<?xml version="1.0" standalone="no"?>
<!DOCTYPE svg PUBLIC "-//W3C//DTD SVG 20010904//EN"
 "http://www.w3.org/TR/2001/REC-SVG-20010904/DTD/svg10.dtd">
<svg version="1.0" xmlns="http://www.w3.org/2000/svg"
 width="1052.000000pt" height="1052.000000pt" viewBox="0 0 1052.000000 1052.000000"
 preserveAspectRatio="xMidYMid meet">
<metadata>
Created by potrace 1.13, written by Peter Selinger 2001-2015
</metadata>
<g transform="translate(0.000000,1052.000000) scale(0.100000,-0.100000)"
fill="#000000" stroke="none">
<path d="M7844 5740 c-689 -57 -1174 -462 -1278 -1069 -21 -121 -21 -351 0
-488 47 -321 192 -587 435 -800 189 -165 439 -304 902 -503 621 -266 751 -369
787 -619 28 -200 -74 -376 -272 -471 -131 -63 -246 -83 -438 -77 -220 8 -361
49 -518 150 -128 83 -243 200 -349 355 -31 45 -60 82 -64 82 -9 0 -770 -439
-786 -454 -10 -9 -2 -30 37 -94 304 -512 781 -813 1421 -898 167 -22 473 -22
639 0 402 54 710 190 947 419 264 255 384 582 370 1005 -17 524 -225 870 -708
1177 -137 87 -418 227 -704 349 -388 166 -538 248 -627 344 -87 93 -124 202
-116 338 7 108 37 181 103 252 95 103 205 146 375 145 193 0 318 -50 445 -178
45 -44 103 -115 130 -158 31 -50 54 -76 62 -72 12 4 742 472 752 481 6 6 -88
151 -158 241 -233 301 -543 476 -936 527 -147 20 -327 26 -451 16z"/>
<path d="M4727 3923 l-3 -1768 -22 -83 c-68 -254 -207 -353 -496 -354 -255 -1
-411 108 -589 414 -29 48 -55 87 -58 86 -4 -2 -185 -111 -402 -242 l-395 -240
33 -65 c178 -354 487 -622 859 -746 354 -118 832 -120 1180 -3 504 168 799
558 866 1143 6 58 10 712 10 1858 l0 1767 -490 0 -489 0 -4 -1767z"/>
</g>
</svg>
