<?xml version="1.0" encoding="utf-8"?>
<!-- Generator: Adobe Illustrator 15.1.0, SVG Export Plug-In  -->
<!DOCTYPE svg PUBLIC "-//W3C//DTD SVG 1.1//EN" "http://www.w3.org/Graphics/SVG/1.1/DTD/svg11.dtd" [
	<!ENTITY ns_flows "http://ns.adobe.com/Flows/1.0/">
]>
<svg version="1.1"
	 xmlns="http://www.w3.org/2000/svg" xmlns:xlink="http://www.w3.org/1999/xlink" xmlns:a="http://ns.adobe.com/AdobeSVGViewerExtensions/3.0/"
	 x="0px" y="0px" width="394px" height="454px" viewBox="-6 -3.4 394 454" enable-background="new -6 -3.4 394 454"
	 xml:space="preserve">
<defs>
</defs>
<g>
	<g>
		<polygon fill="#4FBDED" points="0,111.8 191.7,0 383.4,111.8 383.4,335.5 191.7,447.3 0,335.4 		"/>
	</g>
</g>
<path fill="#FFFFFF" d="M298.8,147.2c-2.4-2.7-5.8-4.3-9.5-4.3H116l-2.5-14.6c-1-6.1-6.2-10.5-12.4-10.5H73
	c-6.9,0-12.5,5.6-12.5,12.5c0,6.9,5.6,12.5,12.5,12.5h17.6l23.3,140c0.1,0.6,0.4,1,0.6,1.6c0.2,0.7,0.4,1.3,0.7,1.9
	c0.4,0.8,1,1.5,1.5,2.2c0.4,0.5,0.7,1,1.2,1.4c0.7,0.7,1.6,1.2,2.4,1.6c0.5,0.3,0.9,0.6,1.4,0.8c1.5,0.6,3,0.9,4.6,0.9
	c0,0,137.9,0,137.9,0c6.9,0,12.5-5.6,12.5-12.5c0-6.9-5.6-12.5-12.5-12.5H136.9l-2.1-12.5h141.9c6.2,0,11.5-4.6,12.4-10.8l12.5-87.8
	C302.2,153.6,301.1,149.9,298.8,147.2z M274.8,168l-3.6,25.1h-44.7V168H274.8z M214.1,168V193h-37.6V168H214.1z M214.1,205.6v25.1
	h-37.6v-25.1H214.1z M163.9,168V193h-37.6c-0.7,0-1.3,0.2-1.9,0.4l-4.2-25.5H163.9z M126.5,205.6h37.4v25.1h-33.3L126.5,205.6z
	 M226.6,230.7v-25.1h42.9l-3.6,25.1H226.6z"/>
<path fill="#FFFFFF" d="M145.1,305.9c10.4,0,18.8,8.4,18.8,18.8c0,10.4-8.4,18.8-18.8,18.8c-10.4,0-18.8-8.4-18.8-18.8
	C126.3,314.3,134.7,305.9,145.1,305.9z"/>
<path fill="#FFFFFF" d="M257.9,305.9c10.4,0,18.8,8.4,18.8,18.8c0,10.4-8.4,18.8-18.8,18.8c-10.4,0-18.8-8.4-18.8-18.8
	C239.1,314.3,247.6,305.9,257.9,305.9z"/>
</svg>
